<svg xmlns="http://www.w3.org/2000/svg" width="33.284" height="40.2" viewBox="0 0 33.284 40.2"><defs><style>.a{fill:#fff;}</style></defs><g transform="translate(0)"><path class="a" d="M76.763,26.36A5.787,5.787,0,0,1,74.55,24.7a1.57,1.57,0,0,0-2.457,1.955,8.866,8.866,0,0,0,2.473,2.119,5.372,5.372,0,0,1-.816,2.072,3.428,3.428,0,0,1-3.022,1.5H51.573c-2.426,0-3.509-2.033-3.823-3.58a9.34,9.34,0,0,0,1.578-1.146,8.028,8.028,0,0,0,2.716-6.107V16.022a9.132,9.132,0,0,1,8.949-9.106h.071a.718.718,0,0,0,.126-.008c.039,0,.071.008.11.008a9.168,9.168,0,0,1,9.027,9.106v2.2a1.57,1.57,0,1,0,3.14,0v-2.2A12.321,12.321,0,0,0,62.633,3.862V1.57a1.57,1.57,0,0,0-3.14,0V3.878A12.268,12.268,0,0,0,48.9,16.022v5.495a5.322,5.322,0,0,1-3.36,4.851A1.55,1.55,0,0,0,44.5,27.844a8.6,8.6,0,0,0,1.57,4.82,6.612,6.612,0,0,0,5.495,2.826h4.867a4.71,4.71,0,1,0,9.42,0h4.867a6.505,6.505,0,0,0,5.6-2.85,8.657,8.657,0,0,0,1.468-4.8A1.509,1.509,0,0,0,76.763,26.36ZM61.158,37.052a1.575,1.575,0,0,1-1.57-1.57h3.14A1.575,1.575,0,0,1,61.158,37.052Z" transform="translate(-44.5)"/></g></svg>