<svg xmlns="http://www.w3.org/2000/svg" width="237.548" height="186.918" viewBox="0 0 237.548 186.918">
  <g id="Group_41644" data-name="Group 41644" transform="translate(-147.999 -213.087)">
    <g id="undraw_plans_y8ru" transform="translate(148 213.087)">
      <path id="Path_115012" data-name="Path 115012" d="M717.06,367.29s4.993,4.993,3.457,6.145-16.9,8.45-16.9,8.834-2.3,2.3-2.3,2.3l-2.689-4.225,10.37-6.529Z" transform="translate(-557.204 -292.824)" fill="#ffb9b9"/>
      <path id="Path_115013" data-name="Path 115013" d="M533.157,355.583s-3.841,6.145-.768,8.834,12.29,9.986,12.29,9.986-2.008,6.238-.044,6.576,5.037-8.5,4.653-9.264-10.617-7.425-10.617-7.425Z" transform="translate(-428.223 -283.804)" fill="#ffb9b9"/>
      <path id="Path_115014" data-name="Path 115014" d="M432.075,721.343l-2.836,10.484,5.511.23,2.318-8.41Z" transform="translate(-330.673 -555.701)" fill="#ffb9b9"/>
      <path id="Path_115015" data-name="Path 115015" d="M587.43,724.033v8.449h3.841l1.92-8.449Z" transform="translate(-452.538 -557.773)" fill="#ffb9b9"/>
    </g>
    <g id="Group_41948" data-name="Group 41948">
      <circle id="Ellipse_9205" data-name="Ellipse 9205" cx="55.111" cy="55.111" r="55.111" transform="translate(211.201 287.717)" fill="#f2f2f2"/>
      <path id="Path_115009" data-name="Path 115009" d="M412.385,445.785c-.637,0-1.281-.01-1.912-.03l.014-.459c.907.028,1.833.036,2.744.024l.006.459Q412.812,445.785,412.385,445.785Zm3.616-.107-.027-.458c.908-.054,1.829-.129,2.735-.224l.048.457C417.843,445.549,416.916,445.625,416,445.679Zm-8.289-.072c-.916-.07-1.842-.162-2.751-.274l.056-.456c.9.111,1.821.2,2.73.272Zm13.787-.5-.069-.454c.9-.137,1.812-.3,2.7-.473l.089.45C423.324,444.8,422.408,444.964,421.5,445.1Zm-19.274-.168c-.9-.153-1.818-.33-2.715-.524l.1-.449c.89.193,1.8.368,2.694.52Zm24.7-.91-.11-.446c.886-.219,1.777-.461,2.648-.72l.131.44C428.711,443.56,427.813,443.8,426.921,444.025Zm-30.1-.263c-.888-.236-1.781-.5-2.655-.772l.138-.438c.867.274,1.754.532,2.635.766Zm35.4-1.309-.151-.434c.86-.3,1.724-.622,2.571-.961l.17.427c-.852.341-1.724.667-2.59.968Zm-40.678-.36c-.862-.317-1.73-.659-2.578-1.016l.178-.423c.842.355,1.7.694,2.558,1.009Zm45.805-1.692-.19-.418c.826-.375,1.656-.776,2.467-1.19l.209.409c-.817.418-1.654.821-2.486,1.2Zm-50.911-.458c-.829-.395-1.661-.815-2.472-1.249l.216-.4c.806.43,1.631.847,2.453,1.239Zm55.825-2.054-.227-.4c.792-.452,1.582-.927,2.349-1.412l.245.388C443.857,436.955,443.06,437.434,442.262,437.889Zm-60.709-.555c-.788-.469-1.578-.963-2.346-1.47l.253-.383c.762.5,1.546.993,2.328,1.458Zm65.376-2.4-.263-.376c.746-.521,1.49-1.067,2.212-1.621l.28.364c-.727.559-1.477,1.109-2.229,1.633Zm-70-.647c-.741-.538-1.482-1.1-2.2-1.677l.287-.359c.714.57,1.449,1.13,2.184,1.664Zm74.378-2.72-.3-.351c.695-.586,1.386-1.2,2.056-1.816l.312.337C452.707,430.363,452.01,430.979,451.31,431.569Zm-78.7-.732c-.69-.6-1.376-1.233-2.038-1.869l.318-.331c.657.631,1.338,1.255,2.023,1.855Zm82.759-3.022-.327-.322c.641-.649,1.274-1.321,1.883-2l.341.307c-.614.681-1.252,1.358-1.9,2.012Zm-86.748-.806c-.633-.666-1.259-1.354-1.859-2.046l.347-.3c.6.686,1.216,1.37,1.845,2.03Zm90.45-3.3-.355-.292c.579-.7,1.149-1.431,1.694-2.161l.368.275c-.55.735-1.124,1.468-1.707,2.177ZM365,422.835c-.569-.719-1.129-1.461-1.665-2.205l.373-.268c.532.739,1.088,1.475,1.652,2.189Zm97.386-3.559-.38-.258c.512-.754,1.014-1.53,1.491-2.307l.392.24C463.4,417.735,462.9,418.517,462.383,419.277Zm-100.613-.925c-.5-.767-.99-1.557-1.456-2.347l.4-.233c.462.784.948,1.568,1.445,2.329Zm103.51-3.791-.4-.222c.441-.8.869-1.617,1.274-2.436l.412.2c-.407.824-.839,1.65-1.283,2.454Zm-106.312-.966c-.428-.81-.844-1.64-1.234-2.468l.415-.2c.388.822.8,1.646,1.225,2.45Zm108.765-4-.421-.184c.366-.836.717-1.692,1.045-2.544l.429.165C468.455,407.891,468.1,408.753,467.732,409.6ZM356.614,408.6c-.352-.845-.689-1.709-1-2.57l.432-.157c.31.854.645,1.711.994,2.55Zm113.1-4.183-.436-.144c.287-.864.557-1.746.8-2.624l.442.124C470.28,402.662,470.007,403.551,469.718,404.422Zm-114.991-1.006c-.273-.875-.53-1.769-.763-2.658l.444-.117c.231.882.486,1.769.757,2.638ZM471.215,399.1l-.447-.1c.206-.885.394-1.789.559-2.686l.452.083C471.612,397.3,471.422,398.207,471.215,399.1Zm-117.891-1.032c-.191-.9-.365-1.811-.515-2.717l.453-.075c.149.9.321,1.806.511,2.7Zm118.892-4.405-.455-.062c.124-.9.228-1.817.31-2.726l.457.041C472.445,391.832,472.34,392.756,472.216,393.662Zm-119.8-1.049c-.108-.909-.2-1.835-.264-2.752l.458-.034c.066.91.155,1.829.262,2.731Zm120.3-4.457-.459-.021c.041-.91.062-1.833.062-2.743h.459C472.777,386.31,472.757,387.24,472.715,388.157Zm-120.7-1.057c-.016-.563-.024-1.138-.024-1.707q0-.53.009-1.058l.459.008q-.009.524-.009,1.05c0,.565.008,1.136.024,1.695Zm120.3-2.348c-.009-.911-.04-1.833-.09-2.743l.458-.026c.051.917.082,1.847.091,2.764ZM352.569,381.6l-.458-.029c.057-.918.136-1.844.235-2.755l.457.049C352.7,379.77,352.626,380.69,352.569,381.6Zm119.44-2.327c-.092-.905-.206-1.821-.339-2.723l.454-.067c.134.908.249,1.831.342,2.744Zm-118.85-3.127-.454-.07c.141-.909.3-1.824.486-2.722l.45.091C353.462,374.336,353.3,375.245,353.16,376.146Zm118.047-2.3c-.175-.9-.373-1.8-.588-2.68l.446-.109c.216.889.416,1.8.592,2.7Zm-116.959-3.077-.445-.112c.223-.889.47-1.786.734-2.666l.44.132C354.714,369,354.469,369.887,354.248,370.769Zm115.661-2.253c-.256-.874-.536-1.754-.832-2.615l.434-.149c.3.867.58,1.754.839,2.635Zm-114.08-3.008-.433-.152c.305-.868.635-1.74.979-2.593l.426.172C356.459,363.78,356.132,364.646,355.829,365.508Zm112.3-2.18c-.335-.845-.694-1.693-1.067-2.521l.419-.189c.376.834.737,1.689,1.075,2.54ZM357.89,360.41l-.417-.192c.384-.835.792-1.673,1.213-2.49l.408.211C358.676,358.75,358.271,359.581,357.89,360.41Zm107.988-2.075c-.411-.811-.847-1.623-1.294-2.414l.4-.226c.451.8.89,1.616,1.3,2.433Zm-105.467-2.808-.4-.229c.458-.8.941-1.592,1.436-2.367l.387.247C361.345,353.948,360.865,354.738,360.411,355.527Zm102.769-1.96c-.485-.773-.993-1.542-1.51-2.288l.377-.262c.521.751,1.033,1.527,1.522,2.305ZM363.367,350.9l-.375-.265c.529-.751,1.083-1.5,1.646-2.225l.363.281C364.442,349.41,363.892,350.153,363.367,350.9Zm96.689-1.835c-.553-.725-1.13-1.445-1.714-2.142l.352-.295c.588.7,1.169,1.428,1.727,2.158Zm-93.324-2.5-.35-.3c.594-.7,1.213-1.392,1.84-2.065l.336.313C367.936,345.178,367.321,345.868,366.732,346.56Zm89.8-1.7c-.617-.672-1.257-1.337-1.9-1.978l.324-.326c.65.646,1.295,1.316,1.916,1.993Zm-86.057-2.311-.321-.328c.657-.642,1.336-1.278,2.02-1.888l.306.343C371.8,341.28,371.128,341.91,370.476,342.548Zm82.166-1.557c-.676-.613-1.374-1.218-2.075-1.8l.293-.354c.706.584,1.409,1.193,2.09,1.811Zm-78.074-2.1-.29-.356c.71-.578,1.444-1.149,2.182-1.7l.274.369C376,337.754,375.272,338.32,374.567,338.894Zm73.845-1.4c-.729-.549-1.48-1.088-2.231-1.6l.259-.379c.757.517,1.513,1.06,2.248,1.614Zm-69.44-1.862-.256-.381c.76-.512,1.543-1.012,2.326-1.489l.239.392C380.5,334.625,379.727,335.122,378.972,335.63Zm64.907-1.238c-.776-.48-1.573-.949-2.369-1.392l.223-.4c.8.447,1.6.919,2.387,1.4Zm-60.225-1.61-.22-.4c.8-.44,1.629-.867,2.451-1.269l.2.413c-.816.4-1.634.823-2.432,1.26Zm55.426-1.064c-.817-.407-1.654-.8-2.488-1.169l.186-.42c.84.371,1.684.768,2.507,1.178Zm-50.507-1.342-.183-.421c.84-.364,1.7-.714,2.555-1.039l.163.429C390.26,329.668,389.407,330.014,388.573,330.376Zm45.479-.881c-.85-.33-1.721-.644-2.587-.935l.146-.436c.873.293,1.75.61,2.607.942ZM393.7,328.431l-.143-.436c.873-.286,1.763-.556,2.647-.8l.123.442c-.877.243-1.76.511-2.626.795Zm35.148-.683c-.876-.25-1.769-.482-2.655-.691l.105-.447c.893.21,1.793.445,2.676.7Zm-29.862-.784-.1-.448c.895-.2,1.806-.391,2.709-.553l.082.452C400.775,326.576,399.87,326.761,398.982,326.963Zm24.522-.475c-.894-.168-1.805-.317-2.708-.444l.064-.455c.909.128,1.827.278,2.729.447Zm-19.122-.5-.061-.455c.909-.121,1.834-.223,2.748-.3l.04.457C406.2,325.767,405.284,325.869,404.381,325.989Zm13.69-.263c-.9-.085-1.825-.151-2.737-.2l.022-.459c.918.045,1.846.111,2.758.2Zm-8.224-.213-.019-.459c.844-.035,1.7-.053,2.557-.053h.208v.459h-.206C411.538,325.459,410.684,325.477,409.847,325.512Z" transform="translate(-142.169 -47.157)" fill="#3f3d56"/>
      <ellipse id="Ellipse_9206" data-name="Ellipse 9206" cx="37.659" cy="2.067" rx="37.659" ry="2.067" transform="translate(229.857 395.872)" fill="#3f3d56"/>
      <path id="Path_115010" data-name="Path 115010" d="M593.109,180.828s-3.5,3.853-3.678,6.656-6.185,9.747-.23,12.024a1.978,1.978,0,0,1,2.1,0c1.051.7,8.09-.807,8.09-.807Z" transform="translate(-322.885 63.908)" fill="#2f2e41"/>
      <path id="Path_115011" data-name="Path 115011" d="M625.96,234.365s3.841,5.377.384,6.529,2.3,24.2,2.3,24.2l14.595-22.66s-7.681-8.45-7.681-12.29Z" transform="translate(-352.671 25.92)" fill="#ffb9b9"/>
      <ellipse id="Ellipse_9207" data-name="Ellipse 9207" cx="8.45" cy="8.45" rx="8.45" ry="8.45" transform="translate(267.528 245.69)" fill="#ffb9b9"/>
      <path id="Path_115016" data-name="Path 115016" d="M550,290.391l-4.993-17.283s-9.218-1.152-13.443,4.225-8.834,15.363-8.834,15.363,2.3,3.457,2.688,5.761,6.529,1.152,6.529,1.152,5.761,1.152,5.761,6.145-18.051,81.423-18.051,81.423,21.892,4.993,23.428,1.152,9.218-49.929,9.218-49.929l.768,51.465s18.435,2.689,19.2-1.92-3.073-61.835-3.073-61.835-.768-13.058-6.913-20.74c0,0-.384-2.3-.384-2.689s9.6-1.92,9.6-1.92,10.37,2.3,9.986-5.761-12.29-19.2-16.515-20.356-5.352-2.688-5.352-2.688Z" transform="translate(-271.336 -6.294)" fill="#2f2e41"/>
      <path id="Path_115017" data-name="Path 115017" d="M457.176,800.057s1.236-.693-1.837.459-9.874,4.363-9.874,4.363-11.415,1.272-1.429,5.88c0,0,7.681.543,7.681-.226s2.688-1.92,3.457-.768,8.432.854,8.454-.23c.024-1.214-.768-9.76-.768-9.76S457.944,802.746,457.176,800.057Z" transform="translate(-209.921 -412.911)" fill="#2f2e41"/>
      <path id="Path_115018" data-name="Path 115018" d="M664.194,788.338s-6.529-2.689-6.913-1.152a81.07,81.07,0,0,0-1.152,8.065c0,.768-1.536,6.529,3.841,7.3s6.529-4.225,6.145-4.609S664.194,788.338,664.194,788.338Z" transform="translate(-376.311 -402.846)" fill="#2f2e41"/>
      <path id="Path_115019" data-name="Path 115019" d="M618.112,162.224s6.091-6.14,13.623,7.872c0,0,7.606,11.986-2.378,15.489,0,0-8.644-1.711-8.881-5.934,0,0,3.153-.35.7-2.978a20.689,20.689,0,0,0-4.729-3.853s-1.927-1.226-1.927-2.452c0,0,0,2.1.35,2.1,0,0-3.328-.35-3.5-1.752a28.561,28.561,0,0,0-.876-3.678S611.544,161.26,618.112,162.224Z" transform="translate(-341.311 79.272)" fill="#2f2e41"/>
      <ellipse id="Ellipse_9208" data-name="Ellipse 9208" cx="5.97" cy="5.97" rx="5.97" ry="5.97" transform="translate(311.506 243.862)" fill="#f2f2f2"/>
      <path id="Path_115020" data-name="Path 115020" d="M798.57,179.156a7.578,7.578,0,1,1,7.578-7.578A7.578,7.578,0,0,1,798.57,179.156Zm0-14.7a7.119,7.119,0,1,0,7.118,7.119A7.119,7.119,0,0,0,798.57,164.459Z" transform="translate(-480.361 76.872)" fill="#3f3d56"/>
      <ellipse id="Ellipse_9209" data-name="Ellipse 9209" cx="5.97" cy="5.97" rx="5.97" ry="5.97" transform="translate(225.313 255.877)" fill="#f2f2f2"/>
      <path id="Path_115022" data-name="Path 115022" d="M418.07,231.656a7.578,7.578,0,1,1,7.578-7.578A7.578,7.578,0,0,1,418.07,231.656Zm0-14.7a7.119,7.119,0,1,0,7.119,7.119A7.119,7.119,0,0,0,418.07,216.959Z" transform="translate(-187.235 36.428)" fill="#3f3d56"/>
      <ellipse id="Ellipse_9210" data-name="Ellipse 9210" cx="5.97" cy="5.97" rx="5.97" ry="5.97" transform="translate(260.835 215.653)" fill="#fff"/>
      <path id="Path_115024" data-name="Path 115024" d="M578.57,58.156a7.578,7.578,0,1,1,7.578-7.578,7.578,7.578,0,0,1-7.578,7.578Zm0-14.7a7.119,7.119,0,1,0,7.119,7.119A7.119,7.119,0,0,0,578.57,43.459Z" transform="translate(-310.88 170.087)" fill="#3f3d56"/>
      <path id="Path_115026" data-name="Path 115026" d="M106.686,457.228a116.913,116.913,0,0,1,5.119,46.041,111.076,111.076,0,0,1-28.572-85.99A116.913,116.913,0,0,1,106.686,457.228Z" transform="translate(65.238 -118.246)" fill="#1070ea"/>
      <path id="Path_115027" data-name="Path 115027" d="M212.778,457.228a116.913,116.913,0,0,0-5.119,46.041,111.076,111.076,0,0,0,28.572-85.99A116.913,116.913,0,0,0,212.778,457.228Z" transform="translate(-30.616 -118.246)" fill="#1070ea"/>
      <path id="Path_115028" data-name="Path 115028" d="M180.5,441.092a116.913,116.913,0,0,1-8.7,45.5A111.076,111.076,0,0,1,169.884,396,116.913,116.913,0,0,1,180.5,441.092Z" transform="translate(4.841 -101.854)" fill="#3f3d56"/>
      <ellipse id="Ellipse_9211" data-name="Ellipse 9211" cx="22.313" cy="1.224" rx="22.313" ry="1.224" transform="translate(154.322 383.796)" fill="#3f3d56"/>
      <circle id="Ellipse_9212" data-name="Ellipse 9212" cx="2.449" cy="2.449" r="2.449" transform="translate(173.233 314.681)" fill="#1070ea"/>
      <ellipse id="Ellipse_9213" data-name="Ellipse 9213" cx="1.361" cy="1.361" rx="1.361" ry="1.361" transform="translate(169.56 335.36)" fill="#1070ea"/>
      <ellipse id="Ellipse_9214" data-name="Ellipse 9214" cx="1.361" cy="1.361" rx="1.361" ry="1.361" transform="translate(152.961 321.892)" fill="#3f3d56"/>
      <ellipse id="Ellipse_9215" data-name="Ellipse 9215" cx="1.361" cy="1.361" rx="1.361" ry="1.361" transform="translate(200.988 308.694)" fill="#3f3d56"/>
      <ellipse id="Ellipse_9216" data-name="Ellipse 9216" cx="1.361" cy="1.361" rx="1.361" ry="1.361" transform="translate(160.036 334.681)" fill="#3f3d56"/>
      <ellipse id="Ellipse_9217" data-name="Ellipse 9217" cx="1.361" cy="1.361" rx="1.361" ry="1.361" transform="translate(188.607 326.789)" fill="#3f3d56"/>
      <ellipse id="Ellipse_9218" data-name="Ellipse 9218" cx="1.361" cy="1.361" rx="1.361" ry="1.361" transform="translate(160.853 354.681)" fill="#3f3d56"/>
      <ellipse id="Ellipse_9219" data-name="Ellipse 9219" cx="1.361" cy="1.361" rx="1.361" ry="1.361" transform="translate(189.968 346.926)" fill="#3f3d56"/>
      <ellipse id="Ellipse_9220" data-name="Ellipse 9220" cx="1.361" cy="1.361" rx="1.361" ry="1.361" transform="translate(176.771 348.286)" fill="#1070ea"/>
      <path id="Path_115029" data-name="Path 115029" d="M928.916,549.992a96.129,96.129,0,0,1,4.209,37.857,91.331,91.331,0,0,1-23.493-70.7A96.132,96.132,0,0,1,928.916,549.992Z" transform="translate(-571.46 -195.18)" fill="#1070ea"/>
      <path id="Path_115030" data-name="Path 115030" d="M1016.15,549.992a96.133,96.133,0,0,0-4.209,37.857,91.33,91.33,0,0,0,23.493-70.7A96.129,96.129,0,0,0,1016.15,549.992Z" transform="translate(-650.274 -195.18)" fill="#1070ea"/>
      <path id="Path_115031" data-name="Path 115031" d="M989.609,536.724a96.129,96.129,0,0,1-7.154,37.412,91.33,91.33,0,0,1-1.575-74.488A96.13,96.13,0,0,1,989.609,536.724Z" transform="translate(-621.121 -181.701)" fill="#3f3d56"/>
      <ellipse id="Ellipse_9221" data-name="Ellipse 9221" cx="18.347" cy="1.007" rx="18.347" ry="1.007" transform="translate(342.983 391.66)" fill="#3f3d56"/>
      <circle id="Ellipse_9222" data-name="Ellipse 9222" cx="2.014" cy="2.014" r="2.014" transform="translate(358.533 334.831)" fill="#1070ea"/>
      <ellipse id="Ellipse_9223" data-name="Ellipse 9223" cx="1.119" cy="1.119" rx="1.119" ry="1.119" transform="translate(355.513 351.835)" fill="#1070ea"/>
      <ellipse id="Ellipse_9224" data-name="Ellipse 9224" cx="1.119" cy="1.119" rx="1.119" ry="1.119" transform="translate(341.865 340.76)" fill="#3f3d56"/>
      <ellipse id="Ellipse_9225" data-name="Ellipse 9225" cx="1.119" cy="1.119" rx="1.119" ry="1.119" transform="translate(381.354 329.909)" fill="#3f3d56"/>
      <ellipse id="Ellipse_9226" data-name="Ellipse 9226" cx="1.119" cy="1.119" rx="1.119" ry="1.119" transform="translate(347.682 351.275)" fill="#3f3d56"/>
      <ellipse id="Ellipse_9227" data-name="Ellipse 9227" cx="1.119" cy="1.119" rx="1.119" ry="1.119" transform="translate(371.175 344.787)" fill="#3f3d56"/>
      <ellipse id="Ellipse_9228" data-name="Ellipse 9228" cx="1.119" cy="1.119" rx="1.119" ry="1.119" transform="translate(348.354 367.721)" fill="#3f3d56"/>
      <ellipse id="Ellipse_9229" data-name="Ellipse 9229" cx="1.119" cy="1.119" rx="1.119" ry="1.119" transform="translate(372.293 361.344)" fill="#3f3d56"/>
      <ellipse id="Ellipse_9230" data-name="Ellipse 9230" cx="1.119" cy="1.119" rx="1.119" ry="1.119" transform="translate(361.442 362.463)" fill="#1070ea"/>
      <path id="Path_115032" data-name="Path 115032" d="M8,0c1.455,0,2.888.67,2.888,2.274,0,1.478-1.694,2.047-2.058,2.581-.273.4-.182.956-.932.956a.724.724,0,0,1-.728-.762c0-1.354,1.989-1.66,1.989-2.775,0-.614-.408-.978-1.091-.978-1.455,0-.887,1.5-1.989,1.5A.68.68,0,0,1,5.34,2.1C5.34.988,6.613,0,8,0ZM7.944,6.549a.933.933,0,1,1-.933.933A.937.937,0,0,1,7.944,6.549Z" transform="translate(223.63 257.444)"/>
      <path id="Path_115032-2" data-name="Path 115032" d="M8,0c1.455,0,2.888.67,2.888,2.274,0,1.478-1.694,2.047-2.058,2.581-.273.4-.182.956-.932.956a.724.724,0,0,1-.728-.762c0-1.354,1.989-1.66,1.989-2.775,0-.614-.408-.978-1.091-.978-1.455,0-.887,1.5-1.989,1.5A.68.68,0,0,1,5.34,2.1C5.34.988,6.613,0,8,0ZM7.944,6.549a.933.933,0,1,1-.933.933A.937.937,0,0,1,7.944,6.549Z" transform="translate(258.629 217.743)"/>
      <path id="Path_115032-3" data-name="Path 115032" d="M8,0c1.455,0,2.888.67,2.888,2.274,0,1.478-1.694,2.047-2.058,2.581-.273.4-.182.956-.932.956a.724.724,0,0,1-.728-.762c0-1.354,1.989-1.66,1.989-2.775,0-.614-.408-.978-1.091-.978-1.455,0-.887,1.5-1.989,1.5A.68.68,0,0,1,5.34,2.1C5.34.988,6.613,0,8,0ZM7.944,6.549a.933.933,0,1,1-.933.933A.937.937,0,0,1,7.944,6.549Z" transform="translate(309.301 245.43)"/>
    </g>
  </g>
</svg>
