<svg xmlns="http://www.w3.org/2000/svg" width="53.854" height="47.552" viewBox="0 0 53.854 47.552"><defs><style>.a{fill:#1e2036;}</style></defs><g transform="translate(0 0)"><path class="a" d="M53.243,32.371,31.323,12.057c-.028-.026-.057-.052-.087-.076a6.716,6.716,0,0,0-8.413-.016q-.045.037-.087.076L.618,32.365a1.83,1.83,0,0,0,0,2.739,2.234,2.234,0,0,0,2.975,0l1.669-1.534V50.3c0,4.272,3.775,7.747,8.415,7.747h7.573a2.025,2.025,0,0,0,2.1-1.937V40.321h7.363V56.107a2.025,2.025,0,0,0,2.1,1.937H40.18c4.64,0,8.415-3.476,8.415-7.747a2.111,2.111,0,0,0-4.207,0A4.055,4.055,0,0,1,40.18,54.17H34.921V38.384a2.025,2.025,0,0,0-2.1-1.937H21.247a2.025,2.025,0,0,0-2.1,1.937V54.17h-5.47A4.055,4.055,0,0,1,9.467,50.3V29.765q0-.029,0-.058l16.193-14.88a2.241,2.241,0,0,1,2.729.005l16,14.828V40.612a2.111,2.111,0,0,0,4.207,0V33.56L50.258,35.1a2.234,2.234,0,0,0,2.975.009A1.83,1.83,0,0,0,53.243,32.371Z" transform="translate(0 -10.492)"/></g></svg>