<svg xmlns="http://www.w3.org/2000/svg" width="111.343" height="151.795" viewBox="0 0 111.343 151.795"><defs><style>.a{fill:#7facfa;}.b{fill:#a4c2f7;}.c{fill:#a0c6f7;}.d{fill:#e8edfc;}.e{fill:#cad9fc;}.f{fill:#428dff;}.g{fill:#fff;}.h{fill:#1070ea;}</style></defs><path class="a" d="M83.252,8.537a37.081,37.081,0,0,0-3.8.177A39.757,39.757,0,0,0,42.773,47.749V66.723h12.65V47.749A27.8,27.8,0,0,1,83.252,21.186,27.24,27.24,0,0,1,111.08,47.749V66.723h12.65V47.749A39.9,39.9,0,0,0,83.252,8.537Zm0,0" transform="translate(-30.095 -6.002)"/><path class="b" d="M79.457,9.145A39.757,39.757,0,0,0,42.773,48.18V67.154h5.061V48.18A27.239,27.239,0,0,1,75.662,21.617a26.829,26.829,0,0,1,3.8.252,26.841,26.841,0,0,1,3.8-.252A27.24,27.24,0,0,1,111.08,48.18V67.154h5.06V48.18A39.755,39.755,0,0,0,79.457,9.145Zm0,0" transform="translate(-30.095 -6.433)"/><path class="c" d="M109.836,199.965v69.167a5.081,5.081,0,0,1-1.493,3.592l-3.567,3.567-3.568,3.567a5.072,5.072,0,0,1-3.592,1.493H20.861a5.074,5.074,0,0,1-3.592-1.493L13.7,276.291l-3.567-3.567a5.081,5.081,0,0,1-1.493-3.592V199.965a5.081,5.081,0,0,1,1.493-3.592l3.567-3.567,3.568-3.567a5.079,5.079,0,0,1,3.592-1.493H97.616a5.077,5.077,0,0,1,3.592,1.493l3.568,3.567,3.567,3.567A5.081,5.081,0,0,1,109.836,199.965Zm0,0" transform="translate(-6.081 -132.085)"/><path class="d" d="M102.246,199.965v69.167a5.071,5.071,0,0,1-1.493,3.592l-7.134,7.134a5.076,5.076,0,0,1-3.592,1.493H20.861a5.074,5.074,0,0,1-3.592-1.493L13.7,276.291l-3.567-3.567a5.081,5.081,0,0,1-1.493-3.592V199.965a5.081,5.081,0,0,1,1.493-3.592l3.567-3.567,3.568-3.567a5.079,5.079,0,0,1,3.592-1.493H90.027a5.081,5.081,0,0,1,3.592,1.493l7.134,7.134A5.071,5.071,0,0,1,102.246,199.965Zm0,0" transform="translate(-6.081 -132.085)"/><path class="d" d="M266.229,247.48v12.65h-7.59a2.537,2.537,0,0,1-2.529-2.53v-7.59a2.535,2.535,0,0,1,2.529-2.529Zm0,0" transform="translate(-180.184 -174.11)"/><path class="d" d="M290.242,247.48h12.65v12.65h-12.65Zm0,0" transform="translate(-204.197 -174.11)"/><path class="e" d="M343.029,250.01v7.59a2.539,2.539,0,0,1-2.53,2.53H332.91V247.48H340.5A2.537,2.537,0,0,1,343.029,250.01Zm0,0" transform="translate(-234.216 -174.11)"/><path class="d" d="M266.229,401.082v12.648h-7.59a2.536,2.536,0,0,1-2.529-2.529v-7.59a2.535,2.535,0,0,1,2.529-2.529Zm0,0" transform="translate(-180.184 -282.174)"/><path class="d" d="M290.242,401.082h12.65v12.648h-12.65Zm0,0" transform="translate(-204.197 -282.174)"/><path class="e" d="M343.029,403.611v7.59a2.537,2.537,0,0,1-2.53,2.529H332.91V401.082H340.5A2.537,2.537,0,0,1,343.029,403.611Zm0,0" transform="translate(-234.216 -282.174)"/><path class="e" d="M343.029,326.81v7.59a2.537,2.537,0,0,1-2.53,2.529H332.91V324.281H340.5A2.537,2.537,0,0,1,343.029,326.81Zm0,0" transform="translate(-234.216 -228.142)"/><path class="d" d="M266.229,324.281V336.93h-7.59a2.535,2.535,0,0,1-2.529-2.529v-7.59a2.535,2.535,0,0,1,2.529-2.529Zm0,0" transform="translate(-180.184 -228.142)"/><path class="d" d="M290.242,324.281h12.65V336.93h-12.65Zm0,0" transform="translate(-204.197 -228.142)"/><g transform="translate(17.739 70.84)"><path class="f" d="M64.9,241.476a2.53,2.53,0,1,1-2.53-2.53A2.53,2.53,0,0,1,64.9,241.476Zm0,0" transform="translate(-59.844 -238.945)"/><path class="f" d="M99.036,241.476a2.53,2.53,0,1,1-2.53-2.53A2.53,2.53,0,0,1,99.036,241.476Zm0,0" transform="translate(-83.857 -238.945)"/><path class="f" d="M133.169,241.476a2.53,2.53,0,1,1-2.53-2.53A2.53,2.53,0,0,1,133.169,241.476Zm0,0" transform="translate(-107.871 -238.945)"/><path class="f" d="M167.3,241.476a2.53,2.53,0,1,1-2.53-2.53A2.53,2.53,0,0,1,167.3,241.476Zm0,0" transform="translate(-131.884 -238.945)"/><path class="f" d="M201.435,241.476a2.53,2.53,0,1,1-2.529-2.53A2.53,2.53,0,0,1,201.435,241.476Zm0,0" transform="translate(-155.898 -238.945)"/><path class="f" d="M64.9,275.611a2.53,2.53,0,1,1-2.53-2.529A2.53,2.53,0,0,1,64.9,275.611Zm0,0" transform="translate(-59.844 -262.962)"/><path class="f" d="M99.036,275.611a2.53,2.53,0,1,1-2.53-2.529A2.53,2.53,0,0,1,99.036,275.611Zm0,0" transform="translate(-83.857 -262.962)"/><path class="f" d="M133.169,275.611a2.53,2.53,0,1,1-2.53-2.529A2.53,2.53,0,0,1,133.169,275.611Zm0,0" transform="translate(-107.871 -262.962)"/><path class="f" d="M167.3,275.611a2.53,2.53,0,1,1-2.53-2.529A2.53,2.53,0,0,1,167.3,275.611Zm0,0" transform="translate(-131.884 -262.962)"/><path class="f" d="M201.435,275.611a2.53,2.53,0,1,1-2.529-2.529A2.53,2.53,0,0,1,201.435,275.611Zm0,0" transform="translate(-155.898 -262.962)"/><path class="f" d="M64.9,309.744a2.53,2.53,0,1,1-2.53-2.529A2.53,2.53,0,0,1,64.9,309.744Zm0,0" transform="translate(-59.844 -286.975)"/><path class="f" d="M99.036,309.744a2.53,2.53,0,1,1-2.53-2.529A2.53,2.53,0,0,1,99.036,309.744Zm0,0" transform="translate(-83.857 -286.975)"/><path class="f" d="M133.169,309.744a2.53,2.53,0,1,1-2.53-2.529A2.53,2.53,0,0,1,133.169,309.744Zm0,0" transform="translate(-107.871 -286.975)"/><path class="f" d="M167.3,309.744a2.53,2.53,0,1,1-2.53-2.529A2.53,2.53,0,0,1,167.3,309.744Zm0,0" transform="translate(-131.884 -286.975)"/><path class="f" d="M201.435,309.744a2.53,2.53,0,1,1-2.529-2.529A2.53,2.53,0,0,1,201.435,309.744Zm0,0" transform="translate(-155.898 -286.975)"/><path class="f" d="M64.9,343.877a2.53,2.53,0,1,1-2.53-2.529A2.53,2.53,0,0,1,64.9,343.877Zm0,0" transform="translate(-59.844 -310.989)"/><path class="f" d="M99.036,343.877a2.53,2.53,0,1,1-2.53-2.529A2.53,2.53,0,0,1,99.036,343.877Zm0,0" transform="translate(-83.857 -310.989)"/><path class="f" d="M133.169,343.877a2.53,2.53,0,1,1-2.53-2.529A2.53,2.53,0,0,1,133.169,343.877Zm0,0" transform="translate(-107.871 -310.989)"/><path class="f" d="M167.3,343.877a2.53,2.53,0,1,1-2.53-2.529A2.53,2.53,0,0,1,167.3,343.877Zm0,0" transform="translate(-131.884 -310.989)"/><path class="f" d="M201.435,343.877a2.53,2.53,0,1,1-2.529-2.529A2.53,2.53,0,0,1,201.435,343.877Zm0,0" transform="translate(-155.898 -310.989)"/><path class="f" d="M64.9,378.01a2.53,2.53,0,1,1-2.53-2.529A2.53,2.53,0,0,1,64.9,378.01Zm0,0" transform="translate(-59.844 -335.002)"/><path class="f" d="M99.036,378.01a2.53,2.53,0,1,1-2.53-2.529A2.53,2.53,0,0,1,99.036,378.01Zm0,0" transform="translate(-83.857 -335.002)"/><path class="f" d="M133.169,378.01a2.53,2.53,0,1,1-2.53-2.529A2.53,2.53,0,0,1,133.169,378.01Zm0,0" transform="translate(-107.871 -335.002)"/><path class="f" d="M167.3,378.01a2.53,2.53,0,1,1-2.53-2.529A2.53,2.53,0,0,1,167.3,378.01Zm0,0" transform="translate(-131.884 -335.002)"/><path class="f" d="M201.435,378.01a2.53,2.53,0,1,1-2.529-2.529A2.53,2.53,0,0,1,201.435,378.01Zm0,0" transform="translate(-155.898 -335.002)"/><path class="f" d="M64.9,412.144a2.53,2.53,0,1,1-2.53-2.53A2.53,2.53,0,0,1,64.9,412.144Zm0,0" transform="translate(-59.844 -359.016)"/><path class="f" d="M99.036,412.144a2.53,2.53,0,1,1-2.53-2.53A2.53,2.53,0,0,1,99.036,412.144Zm0,0" transform="translate(-83.857 -359.016)"/><path class="f" d="M133.169,412.144a2.53,2.53,0,1,1-2.53-2.53A2.53,2.53,0,0,1,133.169,412.144Zm0,0" transform="translate(-107.871 -359.016)"/><path class="f" d="M167.3,412.144a2.53,2.53,0,1,1-2.53-2.53A2.53,2.53,0,0,1,167.3,412.144Zm0,0" transform="translate(-131.884 -359.016)"/><path class="f" d="M201.435,412.144a2.53,2.53,0,1,1-2.529-2.53A2.53,2.53,0,0,1,201.435,412.144Zm0,0" transform="translate(-155.898 -359.016)"/><path class="f" d="M64.9,446.276a2.53,2.53,0,1,1-2.53-2.53A2.53,2.53,0,0,1,64.9,446.276Zm0,0" transform="translate(-59.844 -383.029)"/><path class="f" d="M99.036,446.276a2.53,2.53,0,1,1-2.53-2.53A2.53,2.53,0,0,1,99.036,446.276Zm0,0" transform="translate(-83.857 -383.029)"/><path class="f" d="M133.169,446.276a2.53,2.53,0,1,1-2.53-2.53A2.53,2.53,0,0,1,133.169,446.276Zm0,0" transform="translate(-107.871 -383.029)"/><path class="f" d="M167.3,446.276a2.53,2.53,0,1,1-2.53-2.53A2.53,2.53,0,0,1,167.3,446.276Zm0,0" transform="translate(-131.884 -383.029)"/><path class="f" d="M201.435,446.276a2.53,2.53,0,1,1-2.529-2.53A2.529,2.529,0,0,1,201.435,446.276Zm0,0" transform="translate(-155.898 -383.029)"/></g><path class="g" d="M13.7,276.291l3.568,3.567a5.074,5.074,0,0,0,3.592,1.493H28.45a5.076,5.076,0,0,1-3.592-1.493l-7.134-7.134a5.071,5.071,0,0,1-1.493-3.592V199.965a5.071,5.071,0,0,1,1.493-3.592l8.627-8.627-7.59.473a5.083,5.083,0,0,0-1.492,1.02L13.7,192.806l-3.567,3.567a5.081,5.081,0,0,0-1.493,3.592v69.167a5.081,5.081,0,0,0,1.493,3.592Zm0,0" transform="translate(-6.081 -132.085)"/><path class="g" d="M47.834,61.673V64.2l1.036-1.038a5.089,5.089,0,0,1,1.493-1.02V47.758A39.751,39.751,0,0,1,87,8.73c-1.236-.111-2.482-.184-3.746-.184a37.081,37.081,0,0,0-3.8.177A39.757,39.757,0,0,0,42.773,47.758V62.145a5.049,5.049,0,0,1,2.1-.472Zm0,0" transform="translate(-30.095 -6.012)"/><path class="f" d="M343.972,296.792a2.53,2.53,0,0,1-2.53-2.529V284.144a2.53,2.53,0,1,1,5.06,0v10.119A2.529,2.529,0,0,1,343.972,296.792Zm0,0" transform="translate(-240.217 -198.124)"/><path class="g" d="M5.169,228.961v69.167H.109V228.961Zm0,0" transform="translate(-0.079 -161.081)"/><path class="h" d="M2.639,241.611a2.537,2.537,0,0,0,2.53-2.529v-10.12H.109v10.12A2.535,2.535,0,0,0,2.639,241.611Zm0,0" transform="translate(-0.079 -161.081)"/><path class="h" d="M.109,364.167h5.06V325.358a2.53,2.53,0,1,0-5.06,0Zm0,0" transform="translate(-0.079 -227.119)"/><path class="f" d="M5.1,291.226a2.662,2.662,0,0,0-.734-1.8l-.379-.3a1.91,1.91,0,0,0-.456-.228,1.606,1.606,0,0,0-.455-.152,3.691,3.691,0,0,0-.506-.051,2.659,2.659,0,0,0-1.8.734,2.495,2.495,0,0,0,.835,4.124,2.542,2.542,0,0,0,.961.2,2.5,2.5,0,0,0,2.53-2.529Zm0,0" transform="translate(-0.008 -203.106)"/><path class="h" d="M103.834,201.983a2.53,2.53,0,0,1-2.53-2.529v-5.49a2.537,2.537,0,0,0-.75-1.8l-7.135-7.134a2.53,2.53,0,0,0-1.8-.752H14.859a2.537,2.537,0,0,0-1.8.75L5.921,192.16a2.534,2.534,0,0,0-.752,1.8,2.53,2.53,0,1,1-5.06,0,7.561,7.561,0,0,1,2.233-5.38l7.135-7.134a7.558,7.558,0,0,1,5.382-2.234H91.614A7.557,7.557,0,0,1,97,181.448l7.134,7.135a7.557,7.557,0,0,1,2.234,5.38v5.49A2.53,2.53,0,0,1,103.834,201.983Zm0,0" transform="translate(-0.079 -126.083)"/><path class="h" d="M91.614,457.983H14.859a7.557,7.557,0,0,1-5.382-2.233l-7.134-7.134a7.562,7.562,0,0,1-2.234-5.382,2.53,2.53,0,1,1,5.06,0,2.54,2.54,0,0,0,.75,1.8l7.135,7.134a2.533,2.533,0,0,0,1.8.752H91.614a2.537,2.537,0,0,0,1.8-.75l7.134-7.135a2.529,2.529,0,0,0,.752-1.8v-5.49a2.53,2.53,0,0,1,5.06,0v5.49a7.561,7.561,0,0,1-2.233,5.38L97,455.75A7.562,7.562,0,0,1,91.614,457.983Zm0,0" transform="translate(-0.079 -306.187)"/><path class="f" d="M343.972,373.593a2.53,2.53,0,0,1-2.53-2.529v-10.12a2.53,2.53,0,0,1,5.06,0v10.12A2.53,2.53,0,0,1,343.972,373.593Zm0,0" transform="translate(-240.217 -252.155)"/><path class="h" d="M117.728,58.19a2.53,2.53,0,0,1-2.53-2.53V41.745A37.372,37.372,0,0,0,77.25,5.063,37.372,37.372,0,0,0,39.3,41.745V55.659a2.53,2.53,0,1,1-5.06,0V41.745A42.437,42.437,0,0,1,77.25,0a42.437,42.437,0,0,1,43.008,41.743V55.659A2.53,2.53,0,0,1,117.728,58.19Zm-12.65,0a2.53,2.53,0,0,1-2.53-2.53V41.745a24.718,24.718,0,0,0-25.3-24.034,24.718,24.718,0,0,0-25.3,24.034V55.659a2.53,2.53,0,1,1-5.06,0V41.745A29.779,29.779,0,0,1,77.25,12.652a29.778,29.778,0,0,1,30.358,29.093V55.659A2.53,2.53,0,0,1,105.078,58.19Zm0,0" transform="translate(-24.093 0.002)"/><path class="h" d="M280.462,256.655H252.634a5.066,5.066,0,0,1-5.06-5.06V244a5.067,5.067,0,0,1,5.06-5.06h27.829a5.065,5.065,0,0,1,5.06,5.06v7.59A5.065,5.065,0,0,1,280.462,256.655ZM252.634,244v7.59h27.831l0-7.59Zm0,0" transform="translate(-174.179 -168.105)"/><path class="h" d="M280.462,410.256H252.634a5.067,5.067,0,0,1-5.06-5.06v-7.59a5.066,5.066,0,0,1,5.06-5.06h27.829a5.065,5.065,0,0,1,5.06,5.06v7.59A5.065,5.065,0,0,1,280.462,410.256Zm-27.829-12.65v7.59h27.831l0-7.59Zm0,0" transform="translate(-174.179 -276.169)"/><path class="h" d="M280.462,333.455H252.634a5.066,5.066,0,0,1-5.06-5.06v-7.59a5.066,5.066,0,0,1,5.06-5.06h27.829a5.065,5.065,0,0,1,5.06,5.06v7.59A5.065,5.065,0,0,1,280.462,333.455Zm-27.829-12.65v7.59h27.831l0-7.59Zm0,0" transform="translate(-174.179 -222.137)"/><path class="h" d="M284.237,256.655a2.53,2.53,0,0,1-2.53-2.529v-12.65a2.53,2.53,0,1,1,5.06,0v12.65A2.529,2.529,0,0,1,284.237,256.655Zm0,0" transform="translate(-198.192 -168.105)"/><path class="h" d="M326.905,256.655a2.53,2.53,0,0,1-2.53-2.529v-12.65a2.53,2.53,0,1,1,5.06,0v12.65A2.53,2.53,0,0,1,326.905,256.655Zm0,0" transform="translate(-228.211 -168.105)"/><path class="h" d="M284.237,333.455a2.53,2.53,0,0,1-2.53-2.53V318.276a2.53,2.53,0,1,1,5.06,0v12.649A2.53,2.53,0,0,1,284.237,333.455Zm0,0" transform="translate(-198.192 -222.137)"/><path class="h" d="M326.905,333.455a2.53,2.53,0,0,1-2.53-2.53V318.276a2.53,2.53,0,1,1,5.06,0v12.649A2.53,2.53,0,0,1,326.905,333.455Zm0,0" transform="translate(-228.211 -222.137)"/><path class="h" d="M284.237,410.256a2.53,2.53,0,0,1-2.53-2.53V395.077a2.53,2.53,0,1,1,5.06,0v12.648A2.53,2.53,0,0,1,284.237,410.256Zm0,0" transform="translate(-198.192 -276.169)"/><path class="h" d="M326.905,410.256a2.53,2.53,0,0,1-2.53-2.53V395.077a2.53,2.53,0,1,1,5.06,0v12.648A2.53,2.53,0,0,1,326.905,410.256Zm0,0" transform="translate(-228.211 -276.169)"/></svg>