<svg xmlns="http://www.w3.org/2000/svg" width="49.274" height="49.274" viewBox="0 0 49.274 49.274"><defs><style>.a{fill:#fff;}</style></defs><g transform="translate(0 0)"><path class="a" d="M60.408,22.672,55.83,27.25,46.51,17.931l-3.535,3.535,9.319,9.319L29.436,53.642l-9.319-9.318L16.582,47.86,25.9,57.179l-2.278,2.278-.043-.043a1.8,1.8,0,0,1-1.151.827l-8.69,1.938a1.807,1.807,0,0,1-2.156-2.158l1.937-8.688a1.81,1.81,0,0,1,.828-1.151l-.044-.044L51.088,13.351a1.383,1.383,0,0,1,1.954,0l7.366,7.364A1.382,1.382,0,0,1,60.408,22.672Z" transform="translate(-11.539 -12.948)"/></g></svg>