<svg xmlns="http://www.w3.org/2000/svg" width="129.926" height="129.926" viewBox="0 0 129.926 129.926">
  <g id="Group_41948" data-name="Group 41948" transform="translate(-310.037 -263.037)">
    <path id="Path_114100" data-name="Path 114100" d="M133.128,63.064V164.839a6.5,6.5,0,0,1-6.5,6.5H14.029a6.5,6.5,0,0,1-6.5-6.5V63.064L9.7,58.733H130.962Z" transform="translate(304.67 219.462)" fill="#e6f0fd"/>
    <path id="Path_114101" data-name="Path 114101" d="M133.128,14.029V24.857H7.533V14.029a6.5,6.5,0,0,1,6.5-6.5h112.6A6.5,6.5,0,0,1,133.128,14.029Z" transform="translate(304.67 257.67)" fill="#a0c6f7"/>
    <path id="Path_114102" data-name="Path 114102" d="M126.632,14.029V24.857H7.533V14.029a6.5,6.5,0,0,1,6.5-6.5H120.135A6.5,6.5,0,0,1,126.632,14.029Z" transform="translate(304.67 257.67)" fill="#cee2fb"/>
    <path id="Path_114103" data-name="Path 114103" d="M172.1,206.745v59.073a2.954,2.954,0,0,1-2.966,2.945H88.836a2.967,2.967,0,0,1-2.967-2.945V206.745a2.966,2.966,0,0,1,2.967-2.945H169.13a2.954,2.954,0,0,1,2.967,2.945Z" transform="translate(246.212 111.207)" fill="#a0c6f7"/>
    <path id="Path_114104" data-name="Path 114104" d="M165.6,206.744v59.073a2.954,2.954,0,0,1-2.966,2.945h-73.8a2.887,2.887,0,0,1-1.905-.715,2.836,2.836,0,0,1-1.061-2.23V206.744a2.794,2.794,0,0,1,.758-1.927,1.631,1.631,0,0,1,.346-.325,2.292,2.292,0,0,1,.888-.52,1.678,1.678,0,0,1,.39-.108,2.694,2.694,0,0,1,.585-.065h73.8a2.954,2.954,0,0,1,2.966,2.945Z" transform="translate(246.212 111.208)" fill="#e3e7f2"/>
    <path id="Path_114106" data-name="Path 114106" d="M167.829,206.745v2.967l-27.5,23.3-6.236,5.305a4.48,4.48,0,0,1-5.738,0l-6.258-5.305-33.24-28.194a1.632,1.632,0,0,1,.346-.325,2.292,2.292,0,0,1,.888-.52,1.678,1.678,0,0,1,.39-.108,2.7,2.7,0,0,1,.585-.065h73.8a2.954,2.954,0,0,1,2.967,2.945Z" transform="translate(243.983 111.207)" fill="#f2f8fe"/>
    <path id="Path_114108" data-name="Path 114108" d="M168.721,348.17v3.551a2.954,2.954,0,0,1-2.966,2.945h-73.8a2.887,2.887,0,0,1-1.905-.715l32.936-35.037,6.258,5.305a4.48,4.48,0,0,0,5.738,0l6.236-5.305Z" transform="translate(243.092 25.304)" fill="#f2f8fe"/>
    <path id="Path_114109" data-name="Path 114109" d="M195.395,133.876V120.884a2.165,2.165,0,0,0-2.165-2.165H188.9a2.165,2.165,0,0,1-1.425-3.8l15.158-12.993a2.165,2.165,0,0,1,2.854,0l15.158,12.993a2.165,2.165,0,0,1-1.429,3.8h-4.331a2.165,2.165,0,0,0-2.165,2.165v12.993a2.165,2.165,0,0,1-2.165,2.165H197.56A2.165,2.165,0,0,1,195.395,133.876Z" transform="translate(170.943 187.628)" fill="#fff"/>
    <path id="Path_114110" data-name="Path 114110" d="M14.029,126.632V14.029a6.5,6.5,0,0,1,6.5-6.5h-6.5a6.5,6.5,0,0,0-6.5,6.5v112.6a6.5,6.5,0,0,0,6.5,6.5h6.5A6.5,6.5,0,0,1,14.029,126.632Z" transform="translate(304.67 257.67)" fill="#fff"/>
    <path id="Path_114111" data-name="Path 114111" d="M4.331,128v88.783H0V128Z" transform="translate(310.037 167.519)" fill="#fff"/>
    <path id="Path_114112" data-name="Path 114112" d="M2.165,119.724a2.165,2.165,0,0,0,2.165-2.165V104.566a2.165,2.165,0,0,0-4.331,0v12.993A2.166,2.166,0,0,0,2.165,119.724Z" transform="translate(310.037 186.621)" fill="#1070ea"/>
    <path id="Path_114114" data-name="Path 114114" d="M121.264,0H8.662A8.662,8.662,0,0,0,0,8.662V19.489a2.165,2.165,0,0,0,2.165,2.165h56.3a2.165,2.165,0,0,0,0-4.331H4.331V8.662A4.331,4.331,0,0,1,8.662,4.331h112.6A4.331,4.331,0,0,1,125.6,8.662v8.662H71.459a2.165,2.165,0,0,0,0,4.331h56.3a2.165,2.165,0,0,0,2.165-2.165V8.662A8.662,8.662,0,0,0,121.264,0Z" transform="translate(310.037 263.037)" fill="#1070ea"/>
    <path id="Path_114115" data-name="Path 114115" d="M127.76,102.4a2.165,2.165,0,0,0-2.165,2.165v93.113a4.331,4.331,0,0,1-4.331,4.331H8.662a4.331,4.331,0,0,1-4.331-4.331v-62.8a2.165,2.165,0,0,0-4.331,0v62.8a8.662,8.662,0,0,0,8.662,8.662h112.6a8.662,8.662,0,0,0,8.662-8.662V104.565A2.165,2.165,0,0,0,127.76,102.4Z" transform="translate(310.037 186.622)" fill="#1070ea"/>
    <path id="Path_114116" data-name="Path 114116" d="M36.3,34.133a2.165,2.165,0,1,0,0,4.331h2.165a2.165,2.165,0,0,0,0-4.331Z" transform="translate(284.565 237.565)" fill="#1070ea"/>
    <path id="Path_114117" data-name="Path 114117" d="M78.965,34.133a2.165,2.165,0,0,0,0,4.331h2.165a2.165,2.165,0,1,0,0-4.331Z" transform="translate(252.726 237.565)" fill="#1070ea"/>
    <path id="Path_114118" data-name="Path 114118" d="M121.632,34.133a2.165,2.165,0,0,0,0,4.331H123.8a2.165,2.165,0,1,0,0-4.331h-2.165Z" transform="translate(220.886 237.565)" fill="#1070ea"/>
    <path id="Path_114119" data-name="Path 114119" d="M81.954,126.22a5.147,5.147,0,0,0-5.154,5.132v59.03a5.147,5.147,0,0,0,5.154,5.132h80.641a5.147,5.147,0,0,0,5.154-5.132v-59.03a5.147,5.147,0,0,0-5.154-5.132H133.1v-4.331h6.5a2.165,2.165,0,0,0,1.425-3.8L123.7,102.935a2.166,2.166,0,0,0-2.85,0l-17.324,15.158a2.165,2.165,0,0,0,1.425,3.8h6.5v4.331Zm28.759-8.662,11.561-10.115,11.561,10.115h-2.9a2.165,2.165,0,0,0-2.165,2.165v17.324a2.165,2.165,0,1,0,4.331,0v-6.5h29.493a.812.812,0,0,1,.823.8v59.03a.812.812,0,0,1-.823.8H81.954a.812.812,0,0,1-.823-.8V131.352a.812.812,0,0,1,.823-.8h29.493v6.5a2.165,2.165,0,1,0,4.331,0V119.724a2.165,2.165,0,0,0-2.165-2.165h-2.9Z" transform="translate(252.726 186.622)" fill="#1070ea"/>
    <path id="Path_114120" data-name="Path 114120" d="M111.41,231.162a2.165,2.165,0,0,0,.364,3.032l31.81,25.028a6.83,6.83,0,0,0,8.35,0l31.81-25.019a2.165,2.165,0,1,0-2.676-3.4l-31.813,25.019a2.475,2.475,0,0,1-2.993,0L114.45,230.8A2.165,2.165,0,0,0,111.41,231.162Z" transform="translate(227.241 91.169)" fill="#1070ea"/>
    <path id="Path_114121" data-name="Path 114121" d="M130.993,350.275,111.5,367.6a2.165,2.165,0,1,0,2.876,3.235l19.489-17.323a2.165,2.165,0,1,0-2.876-3.235Z" transform="translate(227.411 2.093)" fill="#1070ea"/>
    <path id="Path_114122" data-name="Path 114122" d="M310.961,350.555a2.165,2.165,0,0,0-2.876,3.235l19.489,17.324a2.165,2.165,0,1,0,2.876-3.235Z" transform="translate(80.635 1.813)" fill="#1070ea"/>
  </g>
</svg>
