<svg xmlns="http://www.w3.org/2000/svg" width="48.467" height="48.467" viewBox="0 0 48.467 48.467"><defs><style>.a{fill:#4b4c5e;stroke:#4b4c5e;}</style></defs><g transform="translate(0.499 0.5)"><path class="a" d="M38.663,62.034A.966.966,0,1,0,37.3,63.4l1.878,1.878a2.381,2.381,0,0,1,0,3.367l-.048.048a2.381,2.381,0,0,1-3.367,0l-1.878-1.877a.966.966,0,0,0-1.218-.121,15.972,15.972,0,0,1-5.738,2.379.966.966,0,0,0-.776.947v2.653a2.384,2.384,0,0,1-2.381,2.381H23.7a2.384,2.384,0,0,1-2.381-2.381V70.02a.966.966,0,0,0-.776-.947,15.975,15.975,0,0,1-5.738-2.379.966.966,0,0,0-1.218.121L11.71,68.692a2.381,2.381,0,0,1-3.367,0l-.048-.048a2.381,2.381,0,0,1,0-3.367L10.172,63.4a.966.966,0,0,0,.121-1.218,15.974,15.974,0,0,1-2.379-5.738.966.966,0,0,0-.947-.776H4.314a2.384,2.384,0,0,1-2.381-2.381v-.068a2.384,2.384,0,0,1,2.381-2.381H6.967a.966.966,0,0,0,.947-.776,15.976,15.976,0,0,1,2.379-5.738.966.966,0,0,0-.121-1.218L8.294,41.228a2.381,2.381,0,0,1,0-3.368l.048-.048a2.381,2.381,0,0,1,3.367,0l1.878,1.877a.966.966,0,0,0,1.366-1.366l-1.877-1.877a4.312,4.312,0,0,0-6.1,0l-.048.048a4.313,4.313,0,0,0,0,6.1l1.33,1.33a17.866,17.866,0,0,0-2.066,4.982H4.314A4.318,4.318,0,0,0,0,53.218v.068A4.318,4.318,0,0,0,4.314,57.6H6.193a17.856,17.856,0,0,0,2.066,4.982l-1.33,1.33a4.313,4.313,0,0,0,0,6.1l.048.048a4.313,4.313,0,0,0,6.1,0l1.33-1.33a17.859,17.859,0,0,0,4.982,2.066v1.879A4.318,4.318,0,0,0,23.7,76.986h.068a4.318,4.318,0,0,0,4.313-4.313V70.793a17.856,17.856,0,0,0,4.982-2.066l1.33,1.33a4.313,4.313,0,0,0,6.1,0l.048-.048a4.312,4.312,0,0,0,0-6.1Z" transform="translate(0 -29.519)"/><path class="a" d="M144.189,19.387H142.31a17.86,17.86,0,0,0-2.066-4.982l1.33-1.33a4.318,4.318,0,0,0,0-6.1l-.048-.048a4.312,4.312,0,0,0-6.1,0L134.1,8.258a17.857,17.857,0,0,0-4.981-2.066V4.313A4.318,4.318,0,0,0,124.8,0h-.068a4.318,4.318,0,0,0-4.313,4.313V6.966a.966.966,0,0,0,1.932,0V4.313a2.384,2.384,0,0,1,2.381-2.381h.068a2.384,2.384,0,0,1,2.381,2.381V6.966a.966.966,0,0,0,.776.947,15.978,15.978,0,0,1,5.738,2.379.966.966,0,0,0,1.218-.121l1.878-1.878a2.381,2.381,0,0,1,3.367,0l.048.048a2.381,2.381,0,0,1,0,3.367l-1.878,1.877a.966.966,0,0,0-.121,1.218,15.973,15.973,0,0,1,2.379,5.738.966.966,0,0,0,.947.776h2.653A2.384,2.384,0,0,1,146.57,23.7v.068a2.384,2.384,0,0,1-2.381,2.381h-2.653a.966.966,0,0,0,0,1.932h2.653a4.318,4.318,0,0,0,4.313-4.313V23.7A4.318,4.318,0,0,0,144.189,19.387Z" transform="translate(-101.034)"/><path class="a" d="M118.391,122.028a3.6,3.6,0,0,1-2.289-.81.966.966,0,1,0-1.216,1.5,5.571,5.571,0,1,0-2.065-4.329.966.966,0,0,0,1.932,0,3.639,3.639,0,1,1,3.639,3.639Z" transform="translate(-94.656 -94.656)"/></g></svg>