<svg xmlns="http://www.w3.org/2000/svg" width="41.949" height="41.949" viewBox="0 0 41.949 41.949"><defs><style>.a{fill:#4b4c5e;}</style></defs><g transform="translate(0)"><g transform="translate(21.603 27.49)"><path class="a" d="M277.288,336.1a7.044,7.044,0,0,0-5.429,2.554l-5.49-2.73a1.641,1.641,0,0,0-1.461,2.938l5.5,2.735a7.056,7.056,0,1,0,6.882-5.5Zm0,10.829a3.774,3.774,0,0,1-3.481-5.23,1.663,1.663,0,0,0,.2-.4,3.773,3.773,0,1,1,3.283,5.634Z" transform="translate(-263.997 -335.752)"/></g><path class="a" d="M34.9,0a7.06,7.06,0,0,0-6.868,8.637L12.441,16.468a7.055,7.055,0,1,0-.017,9.088L15.07,26.9a1.64,1.64,0,0,0,1.486-2.925L13.9,22.628a7.093,7.093,0,0,0,.006-3.227L29.5,11.575A7.049,7.049,0,1,0,34.9,0ZM7.046,24.776A3.774,3.774,0,1,1,10.815,21,3.776,3.776,0,0,1,7.046,24.776ZM34.9,10.829a3.774,3.774,0,1,1,3.769-3.774A3.776,3.776,0,0,1,34.9,10.829Z" transform="translate(0)"/></g></svg>